<?xml version="1.0" standalone="no"?>
<!DOCTYPE svg PUBLIC "-//W3C//DTD SVG 20010904//EN"
 "http://www.w3.org/TR/2001/REC-SVG-20010904/DTD/svg10.dtd">
<svg version="1.0" xmlns="http://www.w3.org/2000/svg"
 width="512.000000pt" height="512.000000pt" viewBox="0 0 512.000000 512.000000"
 preserveAspectRatio="xMidYMid meet">
<metadata>
Created by potrace 1.11, written by Peter Selinger 2001-2013
</metadata>
<g transform="translate(0.000000,512.000000) scale(0.100000,-0.100000)"
fill="#000000" stroke="none">
<path d="M2450 4097 c-236 -115 -664 -321 -1104 -531 -65 -32 -189 -91 -275
-133 -86 -42 -210 -101 -276 -133 -66 -32 -187 -90 -270 -130 -82 -39 -185
-88 -227 -108 -43 -21 -77 -40 -78 -44 0 -4 9 -9 20 -13 11 -3 113 -52 227
-107 115 -55 249 -120 298 -143 50 -23 160 -76 245 -118 152 -73 341 -164 530
-255 52 -25 97 -46 100 -47 3 -1 86 -41 185 -89 99 -49 227 -111 285 -138 58
-28 183 -88 278 -134 l173 -83 192 93 c106 51 226 109 267 128 41 20 154 74
250 120 96 47 213 103 260 125 47 23 159 77 250 121 165 80 373 180 526 253
45 21 86 39 91 39 6 0 9 -185 9 -460 l-1 -460 -27 -23 c-65 -55 -63 -136 4
-185 18 -13 18 -13 -13 -87 -4 -11 -20 -49 -34 -85 -15 -36 -32 -78 -40 -95
-17 -38 -65 -157 -65 -162 0 -2 97 -3 215 -3 l214 0 -14 40 c-8 22 -21 55 -29
73 -8 17 -26 61 -41 97 -14 36 -30 74 -35 85 -5 11 -18 42 -30 69 l-20 49 24
26 c32 35 44 61 41 91 -1 14 -3 30 -4 37 0 6 -16 26 -34 43 l-34 31 0 483 0
482 185 90 c101 49 195 93 208 97 13 5 24 12 24 16 0 3 -33 22 -72 41 -40 18
-156 74 -258 123 -102 49 -230 111 -285 137 -55 26 -163 78 -240 115 -320 155
-778 375 -1061 511 -62 29 -183 87 -269 129 -86 41 -158 75 -159 74 0 0 -48
-23 -106 -52z"/>
<path d="M1253 1992 l2 -428 39 -80 c31 -62 57 -96 120 -156 44 -43 86 -78 92
-78 7 0 14 -4 16 -8 4 -11 93 -63 163 -96 86 -40 235 -92 321 -111 223 -49
323 -60 554 -60 290 0 500 32 730 112 86 30 223 93 228 105 2 4 8 8 14 8 20 0
120 74 186 139 62 61 124 157 141 220 7 29 11 862 3 858 -4 -3 -54 -27 -112
-55 -58 -27 -177 -85 -265 -127 -88 -43 -214 -103 -280 -135 -66 -32 -181 -87
-255 -123 -74 -35 -192 -92 -262 -126 l-127 -61 -113 54 c-62 30 -189 91 -283
136 -93 45 -219 106 -280 135 -102 49 -279 134 -505 243 -52 26 -103 50 -112
54 -17 7 -18 -18 -15 -420z"/>
</g>
</svg>
