<?xml version="1.0" encoding="UTF-8"?>
<!DOCTYPE svg PUBLIC "-//W3C//DTD SVG 1.1//EN" "http://www.w3.org/Graphics/SVG/1.1/DTD/svg11.dtd">
<!-- Creator: CorelDRAW 2018 (64-Bit) -->
<svg xmlns="http://www.w3.org/2000/svg" xml:space="preserve" width="5in" height="3.86364in" version="1.1" style="shape-rendering:geometricPrecision; text-rendering:geometricPrecision; image-rendering:optimizeQuality; fill-rule:evenodd; clip-rule:evenodd"
viewBox="0 0 5000 3863.64"
 xmlns:xlink="http://www.w3.org/1999/xlink">
 <defs>
  <style type="text/css">
   <![CDATA[
    .str0 {stroke:white;stroke-width:25.25;stroke-miterlimit:2.61313}
    .fil5 {fill:none;fill-rule:nonzero}
    .fil2 {fill:#373435}
    .fil3 {fill:#4E5A62}
    .fil8 {fill:#6B809B}
    .fil7 {fill:#52658C}
    .fil0 {fill:black}
    .fil1 {fill:#1A1A1A}
    .fil6 {fill:#663333}
    .fil4 {fill:#373435;fill-rule:nonzero}
   ]]>
  </style>
    <mask id="id0">
  <linearGradient id="id1" gradientUnits="userSpaceOnUse" x1="2474.93" y1="2150.77" x2="2515.08" y2="2671.2">
   <stop offset="0" style="stop-opacity:1; stop-color:white"/>
   <stop offset="0.541176" style="stop-opacity:-34.6392; stop-color:white"/>
   <stop offset="1" style="stop-opacity:0; stop-color:white"/>
  </linearGradient>
     <rect style="fill:url(#id1)" x="2416.19" y="2486.05" width="197.78" height="197.78"/>
    </mask>
 </defs>
 <g id="Layer_x0020_1">
  <metadata id="CorelCorpID_0Corel-Layer"/>
  <g id="_2746089562064">
   <path class="fil0 str0" d="M1056.3 1237.43c10.15,7.31 1416.93,466.73 1466.65,472.54 31.9,3.73 1393.4,-450.88 1422.89,-472.85 -165.84,-56.92 -1380.2,-552.61 -1424.87,-546.15l-1464.67 546.45z"/>
   <path class="fil1 str0" d="M2331.53 2053.46c137.32,65.74 192.77,153.92 192.77,153.92 0,0 45.45,-88.41 178.26,-152.49 173.49,-71.1 493.75,-186.39 677.57,-182.13l4.26 -397.06c-159.76,41.14 -792.33,278.55 -854,284.06 -57.37,5.13 -737.14,-254.71 -871.02,-283.03 -1.12,209.93 -1.26,397.32 -1.26,397.32 0,0 283.74,-7.13 673.41,179.41z"/>
   <path class="fil2 str0" d="M3514.06 1421.87l-2.85 514.11c-10.74,20.4 -27.66,24.49 -31.89,60.42 -5.07,43.14 11.51,48.37 21.5,77.03 -42.55,39.76 -23.19,185.07 -23.17,259.19 0.03,98.5 -1.16,197.99 0.18,296.37l119.98 3.21c2.1,-97.62 0.41,-196.03 0.38,-292.1 -0.04,-80.3 17.9,-223.34 -23.08,-268.48 9.02,-20.71 21.44,-29.32 22.3,-61.08 0.97,-35.95 -9.3,-38.95 -23.11,-59.16 -21.4,-31.35 -9.89,-123.54 -9.89,-172.56 0,-124.12 -0.16,-248.26 0.02,-372.38l-50.37 15.43z"/>
   <path class="fil3 str0" d="M1672.29 2325.59l0.23 338.33c157.87,35.84 317.95,66.97 470.97,133.95 203.1,108.17 226.83,114.1 366.41,246.89 179.67,-166.53 510.78,-347.89 847.11,-382.31l0.88 -849.11c-380.94,32.27 -632.46,149.8 -842.28,360.44 -199.4,-164.99 -401.04,-333.75 -842.96,-360.35l-0.36 512.16z"/>
   <path class="fil4 str0" d="M1880.35 2202.01c16.48,1.02 33.12,2.63 49.6,5.92 16.69,3.33 33.27,8.34 49.92,13.29 0.08,20.13 0.21,40.31 0.55,60.32 0.33,20.13 0.81,40.26 1.37,60.38 0.57,20.18 1.2,40.37 1.84,60.49 0.64,20.18 1.34,40.36 2,60.54 1.25,38.53 3.29,63.66 5.95,75.61 4.66,19.37 14.72,36.65 30.3,52.04 15.7,15.55 36.83,27.31 63.42,35.57 26.92,8.37 47.28,9.5 60.96,3.34 13.65,-6.15 21.77,-16.2 24.39,-30.08 2.62,-13.89 3.8,-37.73 3.41,-71.52 -0.23,-19.8 -0.49,-39.5 -0.71,-59.25 -0.21,-19.69 -0.43,-39.45 -0.62,-59.2 -0.19,-19.7 -0.39,-39.45 -0.51,-59.14 -0.11,-19.69 -0.16,-39.39 -0.16,-59.25 16.6,4.95 33.19,9.94 49.84,13.29 16.52,3.32 33.27,4.95 49.96,5.86 0,18.62 0,37.19 0,55.64 0,18.51 0,37.03 0,55.54 0,18.46 0,37.02 0,55.48 0,18.51 0,37.02 0,55.48 0,25.4 -0.74,47.03 -2.04,64.85 -1.29,17.81 -3.25,32.02 -5.84,42.3 -5.2,20.66 -14.68,37.94 -28.62,50.8 -13.82,12.49 -32.34,20.61 -55.55,24.16 -23.3,2.91 -53.56,-1.18 -91.06,-12.16 -22.59,-6.61 -42.56,-13.61 -59.75,-20.72 -17.14,-7.09 -31.49,-14.57 -43.3,-22.23 -23.31,-15.11 -41.92,-31.15 -55.82,-48.81 -13.85,-17.59 -23.18,-34.5 -28.07,-52.25 -7.16,-26.1 -11.68,-64.58 -13.9,-115.27 -0.88,-20.07 -1.8,-40.2 -2.66,-60.38 -0.86,-20.13 -1.64,-40.26 -2.39,-60.38 -0.74,-20.07 -1.39,-40.15 -1.8,-60.17 -0.41,-20.01 -0.63,-40.04 -0.7,-60.11z"/>
   <path class="fil4" d="M3201.27 2597.59c-33.48,5.55 -67.05,13.34 -100.83,23.06 -12.91,-31.62 -25.82,-62.6 -38.79,-93.51 -31.41,12.06 -62.91,24.87 -94.34,37.59 -31.35,12.68 -62.8,24.99 -94.06,36.4 -13.3,40.18 -26.48,80.06 -39.74,119.76 -33.11,9.51 -66.15,17.03 -98.87,22.37 30.42,-83.95 60.74,-169 90.99,-255.08 30.63,-87.17 61.67,-175.45 93.24,-264.57 33.98,-12.96 68.08,-26.69 102.24,-40.71 31,65.19 62.25,131.02 91.94,198.89 30.28,69.23 58.92,141.55 88.21,215.78zm-169.23 -137.82c-10.55,-24.54 -21.16,-49.06 -31.77,-73.46 -10.61,-24.4 -21.47,-48.66 -32.18,-73.03 -11.01,33.09 -22.06,66.29 -32.95,99.37 -10.84,32.95 -21.73,65.98 -32.49,98.82 21.49,-8.18 43.12,-16.81 64.6,-25.5 21.59,-8.74 43.18,-17.61 64.79,-26.21z"/>
   <path id="1" class="fil5 str0" d="M3201.27 2597.59c-33.48,5.55 -67.05,13.34 -100.83,23.06 -12.91,-31.62 -25.82,-62.6 -38.79,-93.51 -31.41,12.06 -62.91,24.87 -94.34,37.59 -31.35,12.68 -62.8,24.99 -94.06,36.4 -13.3,40.18 -26.48,80.06 -39.74,119.76 -33.11,9.51 -66.15,17.03 -98.87,22.37 30.42,-83.95 60.74,-169 90.99,-255.08 30.63,-87.17 61.67,-175.45 93.24,-264.57 33.98,-12.96 68.08,-26.69 102.24,-40.71 31,65.19 62.25,131.02 91.94,198.89 30.28,69.23 58.92,141.55 88.21,215.78zm-169.23 -137.82c-10.55,-24.54 -21.16,-49.06 -31.77,-73.46 -10.61,-24.4 -21.47,-48.66 -32.18,-73.03 -11.01,33.09 -22.06,66.29 -32.95,99.37 -10.84,32.95 -21.73,65.98 -32.49,98.82 21.49,-8.18 43.12,-16.81 64.6,-25.5 21.59,-8.74 43.18,-17.61 64.79,-26.21z"/>
   <path class="fil6 str0" style="mask:url(#id0)" d="M2515.08 2498.67c47.64,0 86.27,38.62 86.27,86.27 0,47.64 -38.62,86.27 -86.27,86.27 -47.64,0 -86.27,-38.62 -86.27,-86.27 0,-47.64 38.62,-86.27 86.27,-86.27z"/>
   <path class="fil7 str0" d="M2088.75 2702.32c-22.59,-6.61 -42.56,-13.61 -59.75,-20.72 -17.14,-7.1 -31.49,-14.57 -43.3,-22.23 -23.31,-15.11 -41.92,-31.15 -55.83,-48.81 -13.85,-17.59 -23.18,-34.5 -28.07,-52.25 -7.16,-26.1 -11.68,-64.58 -13.9,-115.27 -0.88,-20.07 -1.8,-40.2 -2.66,-60.38 -0.86,-20.13 -1.65,-40.25 -2.39,-60.38 -0.74,-20.07 -1.39,-40.15 -1.8,-60.17 -0.41,-20.01 -0.63,-40.03 -0.7,-60.11 16.48,1.02 33.12,2.63 49.6,5.92 16.69,3.33 33.27,8.34 49.92,13.29 0.08,20.12 0.21,40.31 0.55,60.32 0.33,20.13 0.8,40.26 1.37,60.38 0.57,20.18 1.2,40.37 1.84,60.49 0.64,20.18 1.34,40.36 2,60.54 1.26,38.53 3.29,63.66 5.95,75.61 4.66,19.37 14.72,36.65 30.3,52.04 15.7,15.55 36.83,27.31 63.42,35.57 26.92,8.37 47.28,9.5 60.96,3.33 13.65,-6.15 21.77,-16.2 24.39,-30.08 2.62,-13.88 3.8,-37.72 3.41,-71.52 -0.23,-19.8 -0.49,-39.5 -0.71,-59.25 -0.21,-19.69 -0.43,-39.45 -0.62,-59.2 -0.19,-19.7 -0.39,-39.45 -0.51,-59.14 -0.12,-19.69 -0.16,-39.39 -0.16,-59.25 16.6,4.95 33.19,9.94 49.84,13.29 16.52,3.32 33.27,4.95 49.96,5.86 0,18.62 0,37.19 0,55.64 0,18.51 0,37.03 0,55.54 0,18.46 0,37.02 0,55.48 0,18.51 0,37.02 0,55.48 0,25.4 -0.75,47.03 -2.04,64.85 -1.29,17.81 -3.25,32.02 -5.83,42.3 -5.2,20.67 -14.68,37.94 -28.62,50.8 -13.82,12.49 -32.34,20.61 -55.55,24.16 -23.29,2.91 -53.56,-1.18 -91.06,-12.16zm372.55 -49.93c-19.8,-15.81 -32.48,-40.15 -32.48,-67.45 0,-27.3 12.68,-51.65 32.48,-67.46l0 -289.91c-188.15,-153.68 -394.55,-300.38 -788.7,-336.16 -19.02,-1.73 -38.48,-3.2 -58.4,-4.4l-0.38 547.69 0.25 361.8c168.82,38.33 340.01,71.61 503.65,143.25 191.53,102.01 233.89,118.99 343.58,218.96l0 -159.27 0 -347.06z"/>
   <path class="fil8 str0" d="M2935.13 2412.66c-10.84,32.95 -21.73,65.98 -32.49,98.82 21.49,-8.18 43.12,-16.81 64.6,-25.5 21.59,-8.74 43.18,-17.61 64.79,-26.21 -10.55,-24.54 -21.16,-49.06 -31.77,-73.45 -10.61,-24.4 -21.47,-48.67 -32.18,-73.03 -11.01,33.09 -22.06,66.28 -32.95,99.37z"/>
   <path class="fil7 str0" d="M2967.32 2564.73c-31.35,12.68 -62.8,24.99 -94.06,36.4 -13.3,40.18 -26.48,80.05 -39.74,119.76 -33.11,9.51 -66.15,17.03 -98.87,22.37 30.42,-83.96 60.74,-169 90.99,-255.08 30.64,-87.17 61.67,-175.45 93.24,-264.57 33.99,-12.96 68.08,-26.68 102.25,-40.7 30.99,65.18 62.24,131.02 91.93,198.89 30.28,69.23 58.92,141.55 88.21,215.78 -33.48,5.55 -67.05,13.34 -100.82,23.07 -12.91,-31.62 -25.83,-62.6 -38.79,-93.51 -31.41,12.06 -62.91,24.87 -94.34,37.59zm-398.12 87.39l0 341.59 0 158.51c200.49,-162.31 521.08,-324.01 846.24,-357.29l0.94 -908.02c-19.84,1.68 -39.36,3.58 -58.56,5.69 -344.07,37.9 -586.13,145.6 -788.61,328.69l0 296.44c19.61,15.82 32.15,40.04 32.15,67.19 0,27.15 -12.54,51.37 -32.15,67.18z"/>
   <path class="fil8 str0" d="M2902.65 2511.49c21.49,-8.18 43.12,-16.81 64.6,-25.5 21.59,-8.74 43.18,-17.61 64.79,-26.21 -10.55,-24.54 -21.16,-49.06 -31.77,-73.45 -10.61,-24.4 -21.47,-48.67 -32.18,-73.03 -11.01,33.09 -22.06,66.28 -32.95,99.37 -10.84,32.95 -21.73,65.98 -32.49,98.82z"/>
   <path class="fil7 str0" d="M2902.65 2511.49c21.49,-8.18 43.12,-16.81 64.6,-25.5 21.59,-8.74 43.18,-17.61 64.79,-26.21 -10.55,-24.54 -21.16,-49.06 -31.77,-73.45 -10.61,-24.4 -21.47,-48.67 -32.18,-73.03 -11.01,33.09 -22.06,66.28 -32.95,99.37 -10.84,32.95 -21.73,65.98 -32.49,98.82z"/>
  </g>
 </g>
</svg>
